<mxfile host="app.diagrams.net" modified="2023-11-15T16:39:10.537Z" agent="Mozilla/5.0 (X11; Ubuntu; Linux x86_64; rv:109.0) Gecko/20100101 Firefox/118.0" etag="96Pt2zZiCtjvxvpe5_zm" version="22.1.1" type="device">
  <diagram name="Page-1" id="naOOaUHlWIg6g84lMF8M">
    <mxGraphModel dx="5185" dy="2415" grid="1" gridSize="10" guides="1" tooltips="1" connect="1" arrows="1" fold="1" page="1" pageScale="1" pageWidth="600" pageHeight="475" math="0" shadow="0">
      <root>
        <mxCell id="0" />
        <mxCell id="1" parent="0" />
        <mxCell id="GLbLX6d_GFJWK6EcKB-V-5" value="" style="rounded=0;whiteSpace=wrap;html=1;fillColor=#DEDDDA;strokeColor=#999999;strokeWidth=6;" vertex="1" parent="1">
          <mxGeometry x="10" y="-420" width="190" height="310" as="geometry" />
        </mxCell>
        <mxCell id="GLbLX6d_GFJWK6EcKB-V-4" value="" style="rounded=0;whiteSpace=wrap;html=1;fillColor=#DEDDDA;strokeColor=#999999;strokeWidth=6;" vertex="1" parent="1">
          <mxGeometry x="2650" y="80" width="160" height="330" as="geometry" />
        </mxCell>
        <mxCell id="HKGf76yf_YqV7RcBEFJk-9" value="" style="rounded=0;whiteSpace=wrap;html=1;fillColor=none;strokeColor=#813d9c;strokeWidth=6;" parent="1" vertex="1">
          <mxGeometry x="170" y="-365" width="30" height="185" as="geometry" />
        </mxCell>
        <mxCell id="HKGf76yf_YqV7RcBEFJk-30" value="" style="rounded=0;whiteSpace=wrap;html=1;fillColor=none;strokeColor=#813d9c;strokeWidth=6;" parent="1" vertex="1">
          <mxGeometry x="2653" y="150" width="30" height="185" as="geometry" />
        </mxCell>
        <mxCell id="oj8sMwRd8QXnQj2qeah--5" value="&lt;font style=&quot;font-size: 30px;&quot; face=&quot;Lexend&quot; data-font-src=&quot;https://fonts.googleapis.com/css?family=Lexend&quot;&gt;&lt;b&gt;Exit&lt;/b&gt;&lt;/font&gt;" style="text;html=1;strokeColor=none;fillColor=none;align=center;verticalAlign=middle;whiteSpace=wrap;rounded=0;fontSize=60;" parent="1" vertex="1">
          <mxGeometry x="2650" y="207" width="160" height="70" as="geometry" />
        </mxCell>
        <mxCell id="oj8sMwRd8QXnQj2qeah--6" value="&lt;font size=&quot;1&quot; face=&quot;Lexend&quot;&gt;&lt;b style=&quot;font-size: 30px;&quot;&gt;Entrance&lt;/b&gt;&lt;/font&gt;" style="text;html=1;strokeColor=none;fillColor=none;align=center;verticalAlign=middle;whiteSpace=wrap;rounded=0;fontSize=60;strokeWidth=30;" parent="1" vertex="1">
          <mxGeometry x="8" y="-307.5" width="160" height="70" as="geometry" />
        </mxCell>
        <mxCell id="oj8sMwRd8QXnQj2qeah--3" value="" style="rounded=0;whiteSpace=wrap;html=1;fillColor=#DEDDDA;strokeColor=#999999;strokeWidth=6;" parent="1" vertex="1">
          <mxGeometry x="350" y="-320" width="1390" height="500" as="geometry" />
        </mxCell>
        <mxCell id="oj8sMwRd8QXnQj2qeah--33" value="" style="edgeStyle=orthogonalEdgeStyle;rounded=0;orthogonalLoop=1;jettySize=auto;html=1;strokeColor=#FF8787;strokeWidth=15;" parent="1" source="HKGf76yf_YqV7RcBEFJk-6" target="HKGf76yf_YqV7RcBEFJk-7" edge="1">
          <mxGeometry relative="1" as="geometry" />
        </mxCell>
        <mxCell id="HKGf76yf_YqV7RcBEFJk-6" value="" style="rounded=0;whiteSpace=wrap;html=1;fillColor=#1A1A1A;strokeColor=#000000;strokeWidth=6;" parent="1" vertex="1">
          <mxGeometry x="450" y="-240" width="1230" height="225" as="geometry" />
        </mxCell>
        <mxCell id="HKGf76yf_YqV7RcBEFJk-7" value="" style="rounded=0;whiteSpace=wrap;html=1;fillColor=#1A1A1A;strokeColor=#62a0ea;strokeWidth=6;dashed=1;" parent="1" vertex="1">
          <mxGeometry x="450" y="50" width="1230" height="70" as="geometry" />
        </mxCell>
        <mxCell id="oj8sMwRd8QXnQj2qeah--11" value="&lt;font style=&quot;font-size: 48px;&quot; face=&quot;Lexend&quot;&gt;&lt;b&gt;Examination Waiting Area&lt;br&gt;&lt;/b&gt;&lt;/font&gt;" style="text;html=1;strokeColor=none;fillColor=none;align=center;verticalAlign=middle;whiteSpace=wrap;rounded=0;fontSize=60;" parent="1" vertex="1">
          <mxGeometry x="440" y="-300" width="1230" height="30" as="geometry" />
        </mxCell>
        <mxCell id="oj8sMwRd8QXnQj2qeah--14" value="&lt;font style=&quot;font-size: 48px;&quot; face=&quot;Lexend&quot;&gt;&lt;b&gt; Examination Area&lt;br&gt;&lt;/b&gt;&lt;/font&gt;" style="text;html=1;strokeColor=none;fillColor=none;align=center;verticalAlign=middle;whiteSpace=wrap;rounded=0;fontSize=60;" parent="1" vertex="1">
          <mxGeometry x="775" y="137" width="580" height="30" as="geometry" />
        </mxCell>
        <mxCell id="HKGf76yf_YqV7RcBEFJk-39" style="edgeStyle=orthogonalEdgeStyle;rounded=0;orthogonalLoop=1;jettySize=auto;html=1;entryX=0;entryY=0.5;entryDx=0;entryDy=0;strokeWidth=15;strokeColor=#FF8787;endSize=12;exitX=1;exitY=0.5;exitDx=0;exitDy=0;" parent="1" source="HKGf76yf_YqV7RcBEFJk-7" target="oj8sMwRd8QXnQj2qeah--5" edge="1">
          <mxGeometry relative="1" as="geometry">
            <Array as="points">
              <mxPoint x="2402" y="85" />
              <mxPoint x="2402" y="242" />
            </Array>
            <mxPoint x="2220" y="-20" as="sourcePoint" />
            <mxPoint x="2402" y="153" as="targetPoint" />
          </mxGeometry>
        </mxCell>
        <mxCell id="GLbLX6d_GFJWK6EcKB-V-1" style="edgeStyle=orthogonalEdgeStyle;rounded=0;orthogonalLoop=1;jettySize=auto;html=1;exitX=1;exitY=0.5;exitDx=0;exitDy=0;entryX=0;entryY=0.5;entryDx=0;entryDy=0;strokeColor=#FF8787;strokeWidth=15;" edge="1" parent="1" source="HKGf76yf_YqV7RcBEFJk-9" target="HKGf76yf_YqV7RcBEFJk-6">
          <mxGeometry relative="1" as="geometry" />
        </mxCell>
        <mxCell id="GLbLX6d_GFJWK6EcKB-V-7" value="" style="rounded=0;whiteSpace=wrap;html=1;fillColor=#DEDDDA;strokeColor=#999999;strokeWidth=6;" vertex="1" parent="1">
          <mxGeometry x="1220" y="370" width="1390" height="500" as="geometry" />
        </mxCell>
        <mxCell id="GLbLX6d_GFJWK6EcKB-V-8" value="" style="edgeStyle=orthogonalEdgeStyle;rounded=0;orthogonalLoop=1;jettySize=auto;html=1;strokeColor=#FF8787;strokeWidth=15;" edge="1" parent="1" source="GLbLX6d_GFJWK6EcKB-V-9" target="GLbLX6d_GFJWK6EcKB-V-10">
          <mxGeometry relative="1" as="geometry" />
        </mxCell>
        <mxCell id="GLbLX6d_GFJWK6EcKB-V-9" value="" style="rounded=0;whiteSpace=wrap;html=1;fillColor=#1A1A1A;strokeColor=#000000;strokeWidth=6;" vertex="1" parent="1">
          <mxGeometry x="1320" y="450" width="1230" height="225" as="geometry" />
        </mxCell>
        <mxCell id="GLbLX6d_GFJWK6EcKB-V-14" style="edgeStyle=orthogonalEdgeStyle;rounded=0;orthogonalLoop=1;jettySize=auto;html=1;exitX=1;exitY=0.5;exitDx=0;exitDy=0;entryX=0.25;entryY=1;entryDx=0;entryDy=0;strokeColor=#FF8787;strokeWidth=15;endSize=12;" edge="1" parent="1" source="GLbLX6d_GFJWK6EcKB-V-10" target="HKGf76yf_YqV7RcBEFJk-30">
          <mxGeometry relative="1" as="geometry" />
        </mxCell>
        <mxCell id="GLbLX6d_GFJWK6EcKB-V-10" value="" style="rounded=0;whiteSpace=wrap;html=1;fillColor=#1A1A1A;strokeColor=#62a0ea;strokeWidth=6;dashed=1;" vertex="1" parent="1">
          <mxGeometry x="1320" y="740" width="1230" height="70" as="geometry" />
        </mxCell>
        <mxCell id="GLbLX6d_GFJWK6EcKB-V-11" value="&lt;font style=&quot;font-size: 48px;&quot; face=&quot;Lexend&quot;&gt;&lt;b&gt;Treatment Waiting Area&lt;br&gt;&lt;/b&gt;&lt;/font&gt;" style="text;html=1;strokeColor=none;fillColor=none;align=center;verticalAlign=middle;whiteSpace=wrap;rounded=0;fontSize=60;" vertex="1" parent="1">
          <mxGeometry x="1310" y="390" width="1230" height="30" as="geometry" />
        </mxCell>
        <mxCell id="GLbLX6d_GFJWK6EcKB-V-12" value="&lt;font style=&quot;font-size: 48px;&quot; face=&quot;Lexend&quot;&gt;&lt;b&gt;Treatment Area&lt;br&gt;&lt;/b&gt;&lt;/font&gt;" style="text;html=1;strokeColor=none;fillColor=none;align=center;verticalAlign=middle;whiteSpace=wrap;rounded=0;fontSize=60;" vertex="1" parent="1">
          <mxGeometry x="1645" y="827" width="580" height="30" as="geometry" />
        </mxCell>
        <mxCell id="GLbLX6d_GFJWK6EcKB-V-13" style="edgeStyle=orthogonalEdgeStyle;rounded=0;orthogonalLoop=1;jettySize=auto;html=1;exitX=1;exitY=0.5;exitDx=0;exitDy=0;entryX=0;entryY=0.5;entryDx=0;entryDy=0;strokeColor=#FF8787;strokeWidth=15;endSize=12;dashed=1;" edge="1" parent="1" source="HKGf76yf_YqV7RcBEFJk-7" target="GLbLX6d_GFJWK6EcKB-V-9">
          <mxGeometry relative="1" as="geometry">
            <Array as="points">
              <mxPoint x="1700" y="85" />
              <mxPoint x="1700" y="280" />
              <mxPoint x="1140" y="280" />
              <mxPoint x="1140" y="563" />
            </Array>
          </mxGeometry>
        </mxCell>
      </root>
    </mxGraphModel>
  </diagram>
</mxfile>
